# xmcd CD database file
#
# Track frame offsets:
#	150
#	16257
#	28112
#	39080
#	53550
#	70422
#	78890
#	86405
#	100645
#	116895
#	133972
#	149680
#	161250
#
# Disc length: 2223 seconds
#
# Revision: 0
# Processed by: cddbd v1.4PL0 Copyright (c) Steve Scherf et al.
# Submitted via: CDex 1.50beta10
#
DISCID=a308ad0d
DTITLE=Oxo Cubans - Just Like This
DYEAR=1900
DGENRE=Salsa
TTITLE0=Grey Matter
TTITLE1=Look of the Living Dead
TTITLE2=Plant It
TTITLE3=We Don't Care
TTITLE4=One For Me
TTITLE5=Hate Me More
TTITLE6=SLABOVIC
TTITLE7=Roller Coaster
TTITLE8=For Sale
TTITLE9=Town Takes Cover
TTITLE10=I'm Leaving
TTITLE11=Rock Pool
TTITLE12=Just Like This
EXTD=
EXTT0=
EXTT1=
EXTT2=
EXTT3=
EXTT4=
EXTT5=
EXTT6=
EXTT7=
EXTT8=
EXTT9=
EXTT10=
EXTT11=
EXTT12=
PLAYORDER=
